<svg width="12" height="12" viewBox="0 0 12 12" fill="none" xmlns="http://www.w3.org/2000/svg">
<path fill-rule="evenodd" clip-rule="evenodd" d="M4.5026 6L0.310122 1.80752C-0.103374 1.39403 -0.103374 0.723619 0.310122 0.310122C0.723619 -0.103374 1.39403 -0.103374 1.80752 0.310122L6 4.5026L10.1925 0.310122C10.606 -0.103374 11.2764 -0.103374 11.6899 0.310122C12.1034 0.723619 12.1034 1.39403 11.6899 1.80752L7.4974 6L11.6899 10.1925C12.1034 10.606 12.1034 11.2764 11.6899 11.6899C11.2764 12.1034 10.606 12.1034 10.1925 11.6899L6 7.4974L1.80752 11.6899C1.39403 12.1034 0.723619 12.1034 0.310122 11.6899C-0.103374 11.2764 -0.103374 10.606 0.310122 10.1925L4.5026 6Z" fill="#111321"/>
</svg>
